<svg width="29" height="118" viewBox="0 0 29 118" fill="none" xmlns="http://www.w3.org/2000/svg">
<path d="M27.547 107.162L28 107.458V108V113.653V115.501L26.453 114.49L14.7653 106.854L2.54697 114.837L1 115.848V114L1 108.34V107.798L1.45334 107.502L14.2187 99.1685L14.7655 98.8114L15.3123 99.1687L27.547 107.162Z" fill="#97DBBE" stroke="#97DBD2" stroke-width="2"/>
<path d="M27.547 93.3283L28 93.6243V94.1655V99.8191V101.667L26.453 100.656L14.7653 93.0199L2.54697 101.003L1 102.014V100.166L1 94.5055V93.9641L1.45334 93.6682L14.2187 85.3343L14.7655 84.9773L15.3123 85.3345L27.547 93.3283Z" fill="#97DBBE" stroke="#97DBD2" stroke-width="2"/>
<path d="M27.547 79.4941L28 79.7901V80.3313V85.9849V87.8328L26.453 86.8221L14.7653 79.1857L2.54697 87.1688L1 88.1795V86.3316L1 80.6713V80.1299L1.45334 79.834L14.2187 71.5001L14.7655 71.1431L15.3123 71.5003L27.547 79.4941Z" fill="#97DBBE" stroke="#97DBD2" stroke-width="2"/>
<path d="M27.547 65.66L28 65.956V66.4971V72.1508V73.9987L26.453 72.9879L14.7653 65.3515L2.54697 73.3346L1 74.3454V72.4975L1 66.8372V66.2958L1.45334 65.9998L14.2187 57.666L14.7655 57.3089L15.3123 57.6662L27.547 65.66Z" fill="#97DBBE" stroke="#97DBD2" stroke-width="2"/>
<path d="M27.5473 51.666L28 51.9621V52.503V58.1566V60.0046L26.453 58.9938L14.7653 51.3573L2.54697 59.3405L1 60.3512V58.5033L1 52.843V52.3018L1.45303 52.0058L14.2183 43.6653L14.7655 43.3078L15.3126 43.6655L27.5473 51.666Z" fill="#97DBBE" stroke="#97DBD2" stroke-width="2"/>
<path d="M27.5473 37.8319L28 38.1279V38.6688V44.3225V46.1704L26.453 45.1597L14.7653 37.5232L2.54697 45.5063L1 46.5171V44.6692L1 39.0089V38.4677L1.45303 38.1717L14.2183 29.8312L14.7655 29.4737L15.3126 29.8314L27.5473 37.8319Z" fill="#97DBBE" stroke="#97DBD2" stroke-width="2"/>
<path d="M27.5473 23.9977L28 24.2937V24.8346V30.4883V32.3362L26.453 31.3255L14.7653 23.689L2.54697 31.6721L1 32.6829V30.835L1 25.1747V24.6335L1.45303 24.3375L14.2183 15.997L14.7655 15.6395L15.3126 15.9972L27.5473 23.9977Z" fill="#97DBBE" stroke="#97DBD2" stroke-width="2"/>
<path d="M27.5473 10.1635L28 10.4596V11.0005V16.6542V18.5021L26.453 17.4913L14.7653 9.85486L2.54697 17.838L1 18.8487V17.0008L1 11.3405V10.7994L1.45303 10.5034L14.2183 2.16285L14.7655 1.80532L15.3126 2.16306L27.5473 10.1635Z" fill="#97DBBE" stroke="#97DBD2" stroke-width="2"/>
</svg>
