<svg width="139" height="139" viewBox="0 0 139 139" fill="none" xmlns="http://www.w3.org/2000/svg">
<g opacity="0.34">
<path d="M69.5 139C31.1763 139 0 107.824 0 69.5C0 31.1763 31.1763 0 69.5 0C107.824 0 139 31.1763 139 69.5C139 107.824 107.824 139 69.5 139ZM69.5 0.890322C31.6709 0.890322 0.895273 31.666 0.895273 69.5C0.895273 107.334 31.6709 138.11 69.5 138.11C107.329 138.11 138.105 107.329 138.105 69.5C138.105 31.6709 107.329 0.890322 69.5 0.890322Z" fill="#B4D7FD"/>
<path d="M69.5 130.626C35.7962 130.626 8.37405 103.204 8.37405 69.5C8.37405 35.7961 35.7962 8.37402 69.5 8.37402C103.204 8.37402 130.626 35.7961 130.626 69.5C130.626 103.204 103.204 130.626 69.5 130.626ZM69.5 9.2693C36.2908 9.2693 9.26932 36.2908 9.26932 69.5C9.26932 102.709 36.2908 129.731 69.5 129.731C102.709 129.731 129.731 102.709 129.731 69.5C129.731 36.2908 102.709 9.2693 69.5 9.2693Z" fill="#B4D7FD"/>
<path d="M69.5 122.247C40.416 122.247 16.753 98.5841 16.753 69.5C16.753 40.416 40.416 16.753 69.5 16.753C98.5841 16.753 122.247 40.416 122.247 69.5C122.247 98.5841 98.5841 122.247 69.5 122.247ZM69.5 17.6483C40.9106 17.6483 17.6483 40.9106 17.6483 69.5C17.6483 98.0894 40.9106 121.352 69.5 121.352C98.0894 121.352 121.352 98.0894 121.352 69.5C121.352 40.9106 98.0894 17.6483 69.5 17.6483Z" fill="#B4D7FD"/>
<path d="M69.5 113.868C45.0358 113.868 25.132 93.9642 25.132 69.5C25.132 45.0358 45.0358 25.132 69.5 25.132C93.9642 25.132 113.868 45.0358 113.868 69.5C113.868 93.9642 93.9642 113.868 69.5 113.868ZM69.5 26.0273C45.5254 26.0273 26.0273 45.5304 26.0273 69.5C26.0273 93.4696 45.5254 112.973 69.5 112.973C93.4746 112.973 112.973 93.4746 112.973 69.5C112.973 45.5254 93.4746 26.0273 69.5 26.0273Z" fill="#B4D7FD"/>
<path d="M69.5 105.494C49.6556 105.494 33.506 89.3494 33.506 69.5C33.506 49.6506 49.6556 33.506 69.5 33.506C89.3444 33.506 105.494 49.6556 105.494 69.5C105.494 89.3444 89.3444 105.494 69.5 105.494ZM69.5 34.4013C50.1453 34.4013 34.4013 50.1453 34.4013 69.5C34.4013 88.8547 50.1453 104.599 69.5 104.599C88.8548 104.599 104.599 88.8547 104.599 69.5C104.599 50.1453 88.8548 34.4013 69.5 34.4013Z" fill="#B4D7FD"/>
<path d="M69.5 97.115C54.2754 97.115 41.885 84.7296 41.885 69.5C41.885 54.2704 54.2754 41.885 69.5 41.885C84.7246 41.885 97.115 54.2754 97.115 69.5C97.115 84.7246 84.7246 97.115 69.5 97.115ZM69.5 42.7803C54.7651 42.7803 42.7803 54.7651 42.7803 69.5C42.7803 84.2349 54.7651 96.2197 69.5 96.2197C84.2349 96.2197 96.2197 84.2349 96.2197 69.5C96.2197 54.7651 84.2349 42.7803 69.5 42.7803Z" fill="#B4D7FD"/>
<path d="M69.5 88.736C58.8903 88.736 50.264 80.1048 50.264 69.5C50.264 58.8952 58.8903 50.264 69.5 50.264C80.1097 50.264 88.736 58.8903 88.736 69.5C88.736 80.1097 80.1097 88.736 69.5 88.736ZM69.5 51.1592C59.3849 51.1592 51.1592 59.3898 51.1592 69.5C51.1592 79.6102 59.3849 87.8408 69.5 87.8408C79.6151 87.8408 87.8408 79.6151 87.8408 69.5C87.8408 59.3849 79.6151 51.1592 69.5 51.1592Z" fill="#B4D7FD"/>
<path d="M69.5 80.362C63.51 80.362 58.638 75.4899 58.638 69.5C58.638 63.5101 63.51 58.638 69.5 58.638C75.4899 58.638 80.362 63.5101 80.362 69.5C80.362 75.4899 75.4899 80.362 69.5 80.362ZM69.5 59.5333C64.0047 59.5333 59.5332 64.0047 59.5332 69.5C59.5332 74.9953 64.0047 79.4667 69.5 79.4667C74.9953 79.4667 79.4667 74.9953 79.4667 69.5C79.4667 64.0047 74.9953 59.5333 69.5 59.5333Z" fill="#B4D7FD"/>
</g>
</svg>
