<svg width="114" height="108" viewBox="0 0 114 108" fill="none" xmlns="http://www.w3.org/2000/svg">
<path d="M35.83 104.78C35.83 106.12 34.75 107.2 33.41 107.2C32.07 107.2 30.99 106.12 30.99 104.78C30.99 103.44 32.07 102.36 33.41 102.36C34.74 102.36 35.83 103.44 35.83 104.78Z" fill="#B4D7FD"/>
<path d="M51.32 104.78C51.32 106.12 50.24 107.2 48.9 107.2C47.56 107.2 46.48 106.12 46.48 104.78C46.48 103.44 47.56 102.36 48.9 102.36C50.23 102.36 51.32 103.44 51.32 104.78Z" fill="#B4D7FD"/>
<path d="M66.81 104.78C66.81 106.12 65.73 107.2 64.39 107.2C63.05 107.2 61.97 106.12 61.97 104.78C61.97 103.44 63.05 102.36 64.39 102.36C65.73 102.36 66.81 103.44 66.81 104.78Z" fill="#B4D7FD"/>
<path d="M82.3 104.78C82.3 106.12 81.22 107.2 79.88 107.2C78.54 107.2 77.46 106.12 77.46 104.78C77.46 103.44 78.54 102.36 79.88 102.36C81.22 102.36 82.3 103.44 82.3 104.78Z" fill="#B4D7FD"/>
<path d="M20.33 90.16C20.33 91.5 19.25 92.58 17.91 92.58C16.57 92.58 15.49 91.5 15.49 90.16C15.49 88.82 16.57 87.74 17.91 87.74C19.25 87.74 20.33 88.82 20.33 90.16Z" fill="#B4D7FD"/>
<path d="M35.83 90.16C35.83 91.5 34.75 92.58 33.41 92.58C32.07 92.58 30.99 91.5 30.99 90.16C30.99 88.82 32.07 87.74 33.41 87.74C34.74 87.74 35.83 88.82 35.83 90.16Z" fill="#B4D7FD"/>
<path d="M51.32 90.16C51.32 91.5 50.24 92.58 48.9 92.58C47.56 92.58 46.48 91.5 46.48 90.16C46.48 88.82 47.56 87.74 48.9 87.74C50.23 87.74 51.32 88.82 51.32 90.16Z" fill="#B4D7FD"/>
<path d="M66.81 90.16C66.81 91.5 65.73 92.58 64.39 92.58C63.05 92.58 61.97 91.5 61.97 90.16C61.97 88.82 63.05 87.74 64.39 87.74C65.73 87.74 66.81 88.82 66.81 90.16Z" fill="#B4D7FD"/>
<path d="M82.3 90.16C82.3 91.5 81.22 92.58 79.88 92.58C78.54 92.58 77.46 91.5 77.46 90.16C77.46 88.82 78.54 87.74 79.88 87.74C81.22 87.74 82.3 88.82 82.3 90.16Z" fill="#B4D7FD"/>
<path d="M97.8 90.16C97.8 91.5 96.72 92.58 95.38 92.58C94.04 92.58 92.96 91.5 92.96 90.16C92.96 88.82 94.04 87.74 95.38 87.74C96.71 87.74 97.8 88.82 97.8 90.16Z" fill="#B4D7FD"/>
<path d="M20.33 75.53C20.33 76.87 19.25 77.95 17.91 77.95C16.57 77.95 15.49 76.87 15.49 75.53C15.49 74.19 16.57 73.11 17.91 73.11C19.25 73.11 20.33 74.2 20.33 75.53Z" fill="#B4D7FD"/>
<path d="M35.83 75.53C35.83 76.87 34.75 77.95 33.41 77.95C32.07 77.95 30.99 76.87 30.99 75.53C30.99 74.19 32.07 73.11 33.41 73.11C34.74 73.11 35.83 74.2 35.83 75.53Z" fill="#B4D7FD"/>
<path d="M51.32 75.53C51.32 76.87 50.24 77.95 48.9 77.95C47.56 77.95 46.48 76.87 46.48 75.53C46.48 74.19 47.56 73.11 48.9 73.11C50.23 73.11 51.32 74.2 51.32 75.53Z" fill="#B4D7FD"/>
<path d="M66.81 75.53C66.81 76.87 65.73 77.95 64.39 77.95C63.05 77.95 61.97 76.87 61.97 75.53C61.97 74.19 63.05 73.11 64.39 73.11C65.73 73.11 66.81 74.2 66.81 75.53Z" fill="#B4D7FD"/>
<path d="M82.3 75.53C82.3 76.87 81.22 77.95 79.88 77.95C78.54 77.95 77.46 76.87 77.46 75.53C77.46 74.19 78.54 73.11 79.88 73.11C81.22 73.11 82.3 74.2 82.3 75.53Z" fill="#B4D7FD"/>
<path d="M97.8 75.53C97.8 76.87 96.72 77.95 95.38 77.95C94.04 77.95 92.96 76.87 92.96 75.53C92.96 74.19 94.04 73.11 95.38 73.11C96.71 73.11 97.8 74.2 97.8 75.53Z" fill="#B4D7FD"/>
<path d="M2.41998 63.33C3.75651 63.33 4.84 62.2465 4.84 60.91C4.84 59.5734 3.75651 58.49 2.41998 58.49C1.08345 58.49 0 59.5734 0 60.91C0 62.2465 1.08345 63.33 2.41998 63.33Z" fill="#B4D7FD"/>
<path d="M20.33 60.91C20.33 62.25 19.25 63.33 17.91 63.33C16.57 63.33 15.49 62.25 15.49 60.91C15.49 59.57 16.57 58.49 17.91 58.49C19.25 58.49 20.33 59.58 20.33 60.91Z" fill="#B4D7FD"/>
<path d="M35.83 60.91C35.83 62.25 34.75 63.33 33.41 63.33C32.07 63.33 30.99 62.25 30.99 60.91C30.99 59.57 32.07 58.49 33.41 58.49C34.74 58.49 35.83 59.58 35.83 60.91Z" fill="#B4D7FD"/>
<path d="M51.32 60.91C51.32 62.25 50.24 63.33 48.9 63.33C47.56 63.33 46.48 62.25 46.48 60.91C46.48 59.57 47.56 58.49 48.9 58.49C50.23 58.49 51.32 59.58 51.32 60.91Z" fill="#B4D7FD"/>
<path d="M66.81 60.91C66.81 62.25 65.73 63.33 64.39 63.33C63.05 63.33 61.97 62.25 61.97 60.91C61.97 59.57 63.05 58.49 64.39 58.49C65.73 58.49 66.81 59.58 66.81 60.91Z" fill="#B4D7FD"/>
<path d="M79.88 63.33C81.2165 63.33 82.3 62.2465 82.3 60.91C82.3 59.5734 81.2165 58.49 79.88 58.49C78.5435 58.49 77.46 59.5734 77.46 60.91C77.46 62.2465 78.5435 63.33 79.88 63.33Z" fill="#B4D7FD"/>
<path d="M97.8 60.91C97.8 62.25 96.72 63.33 95.38 63.33C94.04 63.33 92.96 62.25 92.96 60.91C92.96 59.57 94.04 58.49 95.38 58.49C96.71 58.49 97.8 59.58 97.8 60.91Z" fill="#B4D7FD"/>
<path d="M113.29 60.91C113.29 62.25 112.21 63.33 110.87 63.33C109.53 63.33 108.45 62.25 108.45 60.91C108.45 59.57 109.53 58.49 110.87 58.49C112.21 58.49 113.29 59.58 113.29 60.91Z" fill="#B4D7FD"/>
<path d="M4.84 46.29C4.84 47.63 3.75998 48.71 2.41998 48.71C1.07998 48.71 0 47.63 0 46.29C0 44.95 1.07998 43.87 2.41998 43.87C3.75998 43.87 4.84 44.95 4.84 46.29Z" fill="#B4D7FD"/>
<path d="M20.33 46.29C20.33 47.63 19.25 48.71 17.91 48.71C16.57 48.71 15.49 47.63 15.49 46.29C15.49 44.95 16.57 43.87 17.91 43.87C19.25 43.87 20.33 44.95 20.33 46.29Z" fill="#B4D7FD"/>
<path d="M35.83 46.29C35.83 47.63 34.75 48.71 33.41 48.71C32.07 48.71 30.99 47.63 30.99 46.29C30.99 44.95 32.07 43.87 33.41 43.87C34.74 43.87 35.83 44.95 35.83 46.29Z" fill="#B4D7FD"/>
<path d="M51.32 46.29C51.32 47.63 50.24 48.71 48.9 48.71C47.56 48.71 46.48 47.63 46.48 46.29C46.48 44.95 47.56 43.87 48.9 43.87C50.23 43.87 51.32 44.95 51.32 46.29Z" fill="#B4D7FD"/>
<path d="M66.81 46.29C66.81 47.63 65.73 48.71 64.39 48.71C63.05 48.71 61.97 47.63 61.97 46.29C61.97 44.95 63.05 43.87 64.39 43.87C65.73 43.87 66.81 44.95 66.81 46.29Z" fill="#B4D7FD"/>
<path d="M82.3 46.29C82.3 47.63 81.22 48.71 79.88 48.71C78.54 48.71 77.46 47.63 77.46 46.29C77.46 44.95 78.54 43.87 79.88 43.87C81.22 43.87 82.3 44.95 82.3 46.29Z" fill="#B4D7FD"/>
<path d="M97.8 46.29C97.8 47.63 96.72 48.71 95.38 48.71C94.04 48.71 92.96 47.63 92.96 46.29C92.96 44.95 94.04 43.87 95.38 43.87C96.71 43.87 97.8 44.95 97.8 46.29Z" fill="#B4D7FD"/>
<path d="M113.29 46.29C113.29 47.63 112.21 48.71 110.87 48.71C109.53 48.71 108.45 47.63 108.45 46.29C108.45 44.95 109.53 43.87 110.87 43.87C112.21 43.87 113.29 44.95 113.29 46.29Z" fill="#B4D7FD"/>
<path d="M20.33 31.67C20.33 33.01 19.25 34.09 17.91 34.09C16.57 34.09 15.49 33.01 15.49 31.67C15.49 30.33 16.57 29.25 17.91 29.25C19.25 29.25 20.33 30.33 20.33 31.67Z" fill="#B4D7FD"/>
<path d="M35.83 31.67C35.83 33.01 34.75 34.09 33.41 34.09C32.07 34.09 30.99 33.01 30.99 31.67C30.99 30.33 32.07 29.25 33.41 29.25C34.74 29.25 35.83 30.33 35.83 31.67Z" fill="#B4D7FD"/>
<path d="M51.32 31.67C51.32 33.01 50.24 34.09 48.9 34.09C47.56 34.09 46.48 33.01 46.48 31.67C46.48 30.33 47.56 29.25 48.9 29.25C50.23 29.25 51.32 30.33 51.32 31.67Z" fill="#B4D7FD"/>
<path d="M66.81 31.67C66.81 33.01 65.73 34.09 64.39 34.09C63.05 34.09 61.97 33.01 61.97 31.67C61.97 30.33 63.05 29.25 64.39 29.25C65.73 29.25 66.81 30.33 66.81 31.67Z" fill="#B4D7FD"/>
<path d="M82.3 31.67C82.3 33.01 81.22 34.09 79.88 34.09C78.54 34.09 77.46 33.01 77.46 31.67C77.46 30.33 78.54 29.25 79.88 29.25C81.22 29.25 82.3 30.33 82.3 31.67Z" fill="#B4D7FD"/>
<path d="M97.8 31.67C97.8 33.01 96.72 34.09 95.38 34.09C94.04 34.09 92.96 33.01 92.96 31.67C92.96 30.33 94.04 29.25 95.38 29.25C96.71 29.25 97.8 30.33 97.8 31.67Z" fill="#B4D7FD"/>
<path d="M20.33 17.05C20.33 18.39 19.25 19.4699 17.91 19.4699C16.57 19.4699 15.49 18.39 15.49 17.05C15.49 15.71 16.57 14.63 17.91 14.63C19.25 14.62 20.33 15.71 20.33 17.05Z" fill="#B4D7FD"/>
<path d="M35.83 17.05C35.83 18.39 34.75 19.4699 33.41 19.4699C32.07 19.4699 30.99 18.39 30.99 17.05C30.99 15.71 32.07 14.63 33.41 14.63C34.74 14.62 35.83 15.71 35.83 17.05Z" fill="#B4D7FD"/>
<path d="M51.32 17.05C51.32 18.39 50.24 19.4699 48.9 19.4699C47.56 19.4699 46.48 18.39 46.48 17.05C46.48 15.71 47.56 14.63 48.9 14.63C50.23 14.62 51.32 15.71 51.32 17.05Z" fill="#B4D7FD"/>
<path d="M66.81 17.05C66.81 18.39 65.73 19.4699 64.39 19.4699C63.05 19.4699 61.97 18.39 61.97 17.05C61.97 15.71 63.05 14.63 64.39 14.63C65.73 14.62 66.81 15.71 66.81 17.05Z" fill="#B4D7FD"/>
<path d="M82.3 17.05C82.3 18.39 81.22 19.4699 79.88 19.4699C78.54 19.4699 77.46 18.39 77.46 17.05C77.46 15.71 78.54 14.63 79.88 14.63C81.22 14.62 82.3 15.71 82.3 17.05Z" fill="#B4D7FD"/>
<path d="M97.8 17.05C97.8 18.39 96.72 19.4699 95.38 19.4699C94.04 19.4699 92.96 18.39 92.96 17.05C92.96 15.71 94.04 14.63 95.38 14.63C96.71 14.62 97.8 15.71 97.8 17.05Z" fill="#B4D7FD"/>
<path d="M35.83 2.42001C35.83 3.76001 34.75 4.84 33.41 4.84C32.07 4.84 30.99 3.76001 30.99 2.42001C30.99 1.08001 32.07 0 33.41 0C34.74 0 35.83 1.09001 35.83 2.42001Z" fill="#B4D7FD"/>
<path d="M51.32 2.42001C51.32 3.76001 50.24 4.84 48.9 4.84C47.56 4.84 46.48 3.76001 46.48 2.42001C46.48 1.08001 47.56 0 48.9 0C50.23 0 51.32 1.09001 51.32 2.42001Z" fill="#B4D7FD"/>
<path d="M66.81 2.42001C66.81 3.76001 65.73 4.84 64.39 4.84C63.05 4.84 61.97 3.76001 61.97 2.42001C61.97 1.08001 63.05 0 64.39 0C65.73 0 66.81 1.09001 66.81 2.42001Z" fill="#B4D7FD"/>
<path d="M79.88 4.84C81.2165 4.84 82.3 3.75654 82.3 2.42001C82.3 1.08348 81.2165 0 79.88 0C78.5435 0 77.46 1.08348 77.46 2.42001C77.46 3.75654 78.5435 4.84 79.88 4.84Z" fill="#B4D7FD"/>
</svg>
