<svg width="140" height="133" viewBox="0 0 140 133" fill="none" xmlns="http://www.w3.org/2000/svg">
<g opacity="0.3">
<path d="M6.8999 128.54C6.8999 130.17 5.57995 131.49 3.94995 131.49C2.31995 131.49 1 130.17 1 128.54C1 126.91 2.31995 125.59 3.94995 125.59C5.57995 125.59 6.8999 126.91 6.8999 128.54Z" stroke="#101011" stroke-width="1.1786" stroke-miterlimit="10" stroke-linecap="round" stroke-linejoin="round"/>
<path d="M22.8099 131.49C24.4392 131.49 25.76 130.169 25.76 128.54C25.76 126.911 24.4392 125.59 22.8099 125.59C21.1807 125.59 19.86 126.911 19.86 128.54C19.86 130.169 21.1807 131.49 22.8099 131.49Z" stroke="#101011" stroke-width="1.1786" stroke-miterlimit="10" stroke-linecap="round" stroke-linejoin="round"/>
<path d="M41.6699 131.49C43.2992 131.49 44.62 130.169 44.62 128.54C44.62 126.911 43.2992 125.59 41.6699 125.59C40.0407 125.59 38.72 126.911 38.72 128.54C38.72 130.169 40.0407 131.49 41.6699 131.49Z" stroke="#101011" stroke-width="1.1786" stroke-miterlimit="10" stroke-linecap="round" stroke-linejoin="round"/>
<path d="M60.52 131.49C62.1493 131.49 63.47 130.169 63.47 128.54C63.47 126.911 62.1493 125.59 60.52 125.59C58.8908 125.59 57.5699 126.911 57.5699 128.54C57.5699 130.169 58.8908 131.49 60.52 131.49Z" stroke="#101011" stroke-width="1.1786" stroke-miterlimit="10" stroke-linecap="round" stroke-linejoin="round"/>
<path d="M79.38 131.49C81.0092 131.49 82.33 130.169 82.33 128.54C82.33 126.911 81.0092 125.59 79.38 125.59C77.7508 125.59 76.4299 126.911 76.4299 128.54C76.4299 130.169 77.7508 131.49 79.38 131.49Z" stroke="#101011" stroke-width="1.1786" stroke-miterlimit="10" stroke-linecap="round" stroke-linejoin="round"/>
<path d="M98.24 131.49C99.8692 131.49 101.19 130.169 101.19 128.54C101.19 126.911 99.8692 125.59 98.24 125.59C96.6108 125.59 95.2899 126.911 95.2899 128.54C95.2899 130.169 96.6108 131.49 98.24 131.49Z" stroke="#101011" stroke-width="1.1786" stroke-miterlimit="10" stroke-linecap="round" stroke-linejoin="round"/>
<path d="M117.09 131.49C118.719 131.49 120.04 130.169 120.04 128.54C120.04 126.911 118.719 125.59 117.09 125.59C115.461 125.59 114.14 126.911 114.14 128.54C114.14 130.169 115.461 131.49 117.09 131.49Z" stroke="#101011" stroke-width="1.1786" stroke-miterlimit="10" stroke-linecap="round" stroke-linejoin="round"/>
<path d="M138.9 128.54C138.9 130.17 137.58 131.49 135.95 131.49C134.32 131.49 133 130.17 133 128.54C133 126.91 134.32 125.59 135.95 125.59C137.58 125.59 138.9 126.91 138.9 128.54Z" stroke="#101011" stroke-width="1.1786" stroke-miterlimit="10" stroke-linecap="round" stroke-linejoin="round"/>
<path d="M6.8999 110.74C6.8999 112.37 5.57995 113.69 3.94995 113.69C2.31995 113.69 1 112.37 1 110.74C1 109.11 2.31995 107.79 3.94995 107.79C5.57995 107.79 6.8999 109.11 6.8999 110.74Z" stroke="#101011" stroke-width="1.1786" stroke-miterlimit="10" stroke-linecap="round" stroke-linejoin="round"/>
<path d="M22.8099 113.69C24.4392 113.69 25.76 112.369 25.76 110.74C25.76 109.111 24.4392 107.79 22.8099 107.79C21.1807 107.79 19.86 109.111 19.86 110.74C19.86 112.369 21.1807 113.69 22.8099 113.69Z" stroke="#101011" stroke-width="1.1786" stroke-miterlimit="10" stroke-linecap="round" stroke-linejoin="round"/>
<path d="M41.6699 113.69C43.2992 113.69 44.62 112.369 44.62 110.74C44.62 109.111 43.2992 107.79 41.6699 107.79C40.0407 107.79 38.72 109.111 38.72 110.74C38.72 112.369 40.0407 113.69 41.6699 113.69Z" stroke="#101011" stroke-width="1.1786" stroke-miterlimit="10" stroke-linecap="round" stroke-linejoin="round"/>
<path d="M60.52 113.69C62.1493 113.69 63.47 112.369 63.47 110.74C63.47 109.111 62.1493 107.79 60.52 107.79C58.8908 107.79 57.5699 109.111 57.5699 110.74C57.5699 112.369 58.8908 113.69 60.52 113.69Z" stroke="#101011" stroke-width="1.1786" stroke-miterlimit="10" stroke-linecap="round" stroke-linejoin="round"/>
<path d="M79.38 113.69C81.0092 113.69 82.33 112.369 82.33 110.74C82.33 109.111 81.0092 107.79 79.38 107.79C77.7508 107.79 76.4299 109.111 76.4299 110.74C76.4299 112.369 77.7508 113.69 79.38 113.69Z" stroke="#101011" stroke-width="1.1786" stroke-miterlimit="10" stroke-linecap="round" stroke-linejoin="round"/>
<path d="M98.24 113.69C99.8692 113.69 101.19 112.369 101.19 110.74C101.19 109.111 99.8692 107.79 98.24 107.79C96.6108 107.79 95.2899 109.111 95.2899 110.74C95.2899 112.369 96.6108 113.69 98.24 113.69Z" stroke="#101011" stroke-width="1.1786" stroke-miterlimit="10" stroke-linecap="round" stroke-linejoin="round"/>
<path d="M117.09 113.69C118.719 113.69 120.04 112.369 120.04 110.74C120.04 109.111 118.719 107.79 117.09 107.79C115.461 107.79 114.14 109.111 114.14 110.74C114.14 112.369 115.461 113.69 117.09 113.69Z" stroke="#101011" stroke-width="1.1786" stroke-miterlimit="10" stroke-linecap="round" stroke-linejoin="round"/>
<path d="M138.9 110.74C138.9 112.37 137.58 113.69 135.95 113.69C134.32 113.69 133 112.37 133 110.74C133 109.11 134.32 107.79 135.95 107.79C137.58 107.79 138.9 109.11 138.9 110.74Z" stroke="#101011" stroke-width="1.1786" stroke-miterlimit="10" stroke-linecap="round" stroke-linejoin="round"/>
<path d="M6.8999 92.9402C6.8999 94.5702 5.57995 95.8902 3.94995 95.8902C2.31995 95.8902 1 94.5702 1 92.9402C1 91.3102 2.31995 89.9902 3.94995 89.9902C5.57995 89.9902 6.8999 91.3102 6.8999 92.9402Z" stroke="#101011" stroke-width="1.1786" stroke-miterlimit="10" stroke-linecap="round" stroke-linejoin="round"/>
<path d="M22.8099 95.8902C24.4392 95.8902 25.76 94.5695 25.76 92.9402C25.76 91.311 24.4392 89.9902 22.8099 89.9902C21.1807 89.9902 19.86 91.311 19.86 92.9402C19.86 94.5695 21.1807 95.8902 22.8099 95.8902Z" stroke="#101011" stroke-width="1.1786" stroke-miterlimit="10" stroke-linecap="round" stroke-linejoin="round"/>
<path d="M41.6699 95.8902C43.2992 95.8902 44.62 94.5695 44.62 92.9402C44.62 91.311 43.2992 89.9902 41.6699 89.9902C40.0407 89.9902 38.72 91.311 38.72 92.9402C38.72 94.5695 40.0407 95.8902 41.6699 95.8902Z" stroke="#101011" stroke-width="1.1786" stroke-miterlimit="10" stroke-linecap="round" stroke-linejoin="round"/>
<path d="M60.52 95.8902C62.1493 95.8902 63.47 94.5695 63.47 92.9402C63.47 91.311 62.1493 89.9902 60.52 89.9902C58.8908 89.9902 57.5699 91.311 57.5699 92.9402C57.5699 94.5695 58.8908 95.8902 60.52 95.8902Z" stroke="#101011" stroke-width="1.1786" stroke-miterlimit="10" stroke-linecap="round" stroke-linejoin="round"/>
<path d="M79.38 95.8902C81.0092 95.8902 82.33 94.5695 82.33 92.9402C82.33 91.311 81.0092 89.9902 79.38 89.9902C77.7508 89.9902 76.4299 91.311 76.4299 92.9402C76.4299 94.5695 77.7508 95.8902 79.38 95.8902Z" stroke="#101011" stroke-width="1.1786" stroke-miterlimit="10" stroke-linecap="round" stroke-linejoin="round"/>
<path d="M98.24 95.8902C99.8692 95.8902 101.19 94.5695 101.19 92.9402C101.19 91.311 99.8692 89.9902 98.24 89.9902C96.6108 89.9902 95.2899 91.311 95.2899 92.9402C95.2899 94.5695 96.6108 95.8902 98.24 95.8902Z" stroke="#101011" stroke-width="1.1786" stroke-miterlimit="10" stroke-linecap="round" stroke-linejoin="round"/>
<path d="M117.09 95.8902C118.719 95.8902 120.04 94.5695 120.04 92.9402C120.04 91.311 118.719 89.9902 117.09 89.9902C115.461 89.9902 114.14 91.311 114.14 92.9402C114.14 94.5695 115.461 95.8902 117.09 95.8902Z" stroke="#101011" stroke-width="1.1786" stroke-miterlimit="10" stroke-linecap="round" stroke-linejoin="round"/>
<path d="M138.9 92.9402C138.9 94.5702 137.58 95.8902 135.95 95.8902C134.32 95.8902 133 94.5702 133 92.9402C133 91.3102 134.32 89.9902 135.95 89.9902C137.58 89.9902 138.9 91.3102 138.9 92.9402Z" stroke="#101011" stroke-width="1.1786" stroke-miterlimit="10" stroke-linecap="round" stroke-linejoin="round"/>
<path d="M6.8999 75.1399C6.8999 76.7699 5.57995 78.0899 3.94995 78.0899C2.31995 78.0899 1 76.7699 1 75.1399C1 73.5099 2.31995 72.1899 3.94995 72.1899C5.57995 72.1999 6.8999 73.5199 6.8999 75.1399Z" stroke="#101011" stroke-width="1.1786" stroke-miterlimit="10" stroke-linecap="round" stroke-linejoin="round"/>
<path d="M25.75 75.1399C25.75 76.7699 24.4299 78.0899 22.7999 78.0899C21.1699 78.0899 19.85 76.7699 19.85 75.1399C19.85 73.5099 21.1699 72.1899 22.7999 72.1899C24.4299 72.1899 25.75 73.5199 25.75 75.1399Z" stroke="#101011" stroke-width="1.1786" stroke-miterlimit="10" stroke-linecap="round" stroke-linejoin="round"/>
<path d="M44.61 75.1399C44.61 76.7699 43.2899 78.0899 41.6599 78.0899C40.0299 78.0899 38.71 76.7699 38.71 75.1399C38.71 73.5099 40.0299 72.1899 41.6599 72.1899C43.2899 72.1999 44.61 73.5199 44.61 75.1399Z" stroke="#101011" stroke-width="1.1786" stroke-miterlimit="10" stroke-linecap="round" stroke-linejoin="round"/>
<path d="M63.47 75.1399C63.47 76.7699 62.15 78.0899 60.52 78.0899C58.89 78.0899 57.5699 76.7699 57.5699 75.1399C57.5699 73.5099 58.89 72.1899 60.52 72.1899C62.15 72.1899 63.47 73.5199 63.47 75.1399Z" stroke="#101011" stroke-width="1.1786" stroke-miterlimit="10" stroke-linecap="round" stroke-linejoin="round"/>
<path d="M82.33 75.1399C82.33 76.7699 81.01 78.0899 79.38 78.0899C77.75 78.0899 76.4299 76.7699 76.4299 75.1399C76.4299 73.5099 77.75 72.1899 79.38 72.1899C81.01 72.1999 82.33 73.5199 82.33 75.1399Z" stroke="#101011" stroke-width="1.1786" stroke-miterlimit="10" stroke-linecap="round" stroke-linejoin="round"/>
<path d="M101.18 75.1399C101.18 76.7699 99.86 78.0899 98.23 78.0899C96.6 78.0899 95.2799 76.7699 95.2799 75.1399C95.2799 73.5099 96.6 72.1899 98.23 72.1899C99.86 72.1999 101.18 73.5199 101.18 75.1399Z" stroke="#101011" stroke-width="1.1786" stroke-miterlimit="10" stroke-linecap="round" stroke-linejoin="round"/>
<path d="M120.04 75.1399C120.04 76.7699 118.72 78.0899 117.09 78.0899C115.46 78.0899 114.14 76.7699 114.14 75.1399C114.14 73.5099 115.46 72.1899 117.09 72.1899C118.72 72.1999 120.04 73.5199 120.04 75.1399Z" stroke="#101011" stroke-width="1.1786" stroke-miterlimit="10" stroke-linecap="round" stroke-linejoin="round"/>
<path d="M138.9 75.1399C138.9 76.7699 137.58 78.0899 135.95 78.0899C134.32 78.0899 133 76.7699 133 75.1399C133 73.5099 134.32 72.1899 135.95 72.1899C137.58 72.1899 138.9 73.5199 138.9 75.1399Z" stroke="#101011" stroke-width="1.1786" stroke-miterlimit="10" stroke-linecap="round" stroke-linejoin="round"/>
<path d="M6.8999 57.3499C6.8999 58.9799 5.57995 60.2999 3.94995 60.2999C2.31995 60.2999 1 58.9799 1 57.3499C1 55.7199 2.31995 54.3999 3.94995 54.3999C5.57995 54.3999 6.8999 55.7199 6.8999 57.3499Z" stroke="#101011" stroke-width="1.1786" stroke-miterlimit="10" stroke-linecap="round" stroke-linejoin="round"/>
<path d="M25.75 57.3499C25.75 58.9799 24.4299 60.2999 22.7999 60.2999C21.1699 60.2999 19.85 58.9799 19.85 57.3499C19.85 55.7199 21.1699 54.3999 22.7999 54.3999C24.4299 54.3999 25.75 55.7199 25.75 57.3499Z" stroke="#101011" stroke-width="1.1786" stroke-miterlimit="10" stroke-linecap="round" stroke-linejoin="round"/>
<path d="M44.61 57.3499C44.61 58.9799 43.2899 60.2999 41.6599 60.2999C40.0299 60.2999 38.71 58.9799 38.71 57.3499C38.71 55.7199 40.0299 54.3999 41.6599 54.3999C43.2899 54.3999 44.61 55.7199 44.61 57.3499Z" stroke="#101011" stroke-width="1.1786" stroke-miterlimit="10" stroke-linecap="round" stroke-linejoin="round"/>
<path d="M63.47 57.3499C63.47 58.9799 62.15 60.2999 60.52 60.2999C58.89 60.2999 57.5699 58.9799 57.5699 57.3499C57.5699 55.7199 58.89 54.3999 60.52 54.3999C62.15 54.3999 63.47 55.7199 63.47 57.3499Z" stroke="#101011" stroke-width="1.1786" stroke-miterlimit="10" stroke-linecap="round" stroke-linejoin="round"/>
<path d="M82.33 57.3499C82.33 58.9799 81.01 60.2999 79.38 60.2999C77.75 60.2999 76.4299 58.9799 76.4299 57.3499C76.4299 55.7199 77.75 54.3999 79.38 54.3999C81.01 54.3999 82.33 55.7199 82.33 57.3499Z" stroke="#101011" stroke-width="1.1786" stroke-miterlimit="10" stroke-linecap="round" stroke-linejoin="round"/>
<path d="M101.18 57.3499C101.18 58.9799 99.86 60.2999 98.23 60.2999C96.6 60.2999 95.2799 58.9799 95.2799 57.3499C95.2799 55.7199 96.6 54.3999 98.23 54.3999C99.86 54.3999 101.18 55.7199 101.18 57.3499Z" stroke="#101011" stroke-width="1.1786" stroke-miterlimit="10" stroke-linecap="round" stroke-linejoin="round"/>
<path d="M120.04 57.3499C120.04 58.9799 118.72 60.2999 117.09 60.2999C115.46 60.2999 114.14 58.9799 114.14 57.3499C114.14 55.7199 115.46 54.3999 117.09 54.3999C118.72 54.3999 120.04 55.7199 120.04 57.3499Z" stroke="#101011" stroke-width="1.1786" stroke-miterlimit="10" stroke-linecap="round" stroke-linejoin="round"/>
<path d="M138.9 57.3499C138.9 58.9799 137.58 60.2999 135.95 60.2999C134.32 60.2999 133 58.9799 133 57.3499C133 55.7199 134.32 54.3999 135.95 54.3999C137.58 54.3999 138.9 55.7199 138.9 57.3499Z" stroke="#101011" stroke-width="1.1786" stroke-miterlimit="10" stroke-linecap="round" stroke-linejoin="round"/>
<path d="M6.8999 39.5501C6.8999 41.1801 5.57995 42.5001 3.94995 42.5001C2.31995 42.5001 1 41.1801 1 39.5501C1 37.9201 2.31995 36.6001 3.94995 36.6001C5.57995 36.6001 6.8999 37.9201 6.8999 39.5501Z" stroke="#101011" stroke-width="1.1786" stroke-miterlimit="10" stroke-linecap="round" stroke-linejoin="round"/>
<path d="M25.75 39.5501C25.75 41.1801 24.4299 42.5001 22.7999 42.5001C21.1699 42.5001 19.85 41.1801 19.85 39.5501C19.85 37.9201 21.1699 36.6001 22.7999 36.6001C24.4299 36.6001 25.75 37.9201 25.75 39.5501Z" stroke="#101011" stroke-width="1.1786" stroke-miterlimit="10" stroke-linecap="round" stroke-linejoin="round"/>
<path d="M44.61 39.5501C44.61 41.1801 43.2899 42.5001 41.6599 42.5001C40.0299 42.5001 38.71 41.1801 38.71 39.5501C38.71 37.9201 40.0299 36.6001 41.6599 36.6001C43.2899 36.6001 44.61 37.9201 44.61 39.5501Z" stroke="#101011" stroke-width="1.1786" stroke-miterlimit="10" stroke-linecap="round" stroke-linejoin="round"/>
<path d="M63.47 39.5501C63.47 41.1801 62.15 42.5001 60.52 42.5001C58.89 42.5001 57.5699 41.1801 57.5699 39.5501C57.5699 37.9201 58.89 36.6001 60.52 36.6001C62.15 36.6001 63.47 37.9201 63.47 39.5501Z" stroke="#101011" stroke-width="1.1786" stroke-miterlimit="10" stroke-linecap="round" stroke-linejoin="round"/>
<path d="M82.33 39.5501C82.33 41.1801 81.01 42.5001 79.38 42.5001C77.75 42.5001 76.4299 41.1801 76.4299 39.5501C76.4299 37.9201 77.75 36.6001 79.38 36.6001C81.01 36.6001 82.33 37.9201 82.33 39.5501Z" stroke="#101011" stroke-width="1.1786" stroke-miterlimit="10" stroke-linecap="round" stroke-linejoin="round"/>
<path d="M101.18 39.5501C101.18 41.1801 99.86 42.5001 98.23 42.5001C96.6 42.5001 95.2799 41.1801 95.2799 39.5501C95.2799 37.9201 96.6 36.6001 98.23 36.6001C99.86 36.6001 101.18 37.9201 101.18 39.5501Z" stroke="#101011" stroke-width="1.1786" stroke-miterlimit="10" stroke-linecap="round" stroke-linejoin="round"/>
<path d="M120.04 39.5501C120.04 41.1801 118.72 42.5001 117.09 42.5001C115.46 42.5001 114.14 41.1801 114.14 39.5501C114.14 37.9201 115.46 36.6001 117.09 36.6001C118.72 36.6001 120.04 37.9201 120.04 39.5501Z" stroke="#101011" stroke-width="1.1786" stroke-miterlimit="10" stroke-linecap="round" stroke-linejoin="round"/>
<path d="M138.9 39.5501C138.9 41.1801 137.58 42.5001 135.95 42.5001C134.32 42.5001 133 41.1801 133 39.5501C133 37.9201 134.32 36.6001 135.95 36.6001C137.58 36.6001 138.9 37.9201 138.9 39.5501Z" stroke="#101011" stroke-width="1.1786" stroke-miterlimit="10" stroke-linecap="round" stroke-linejoin="round"/>
<path d="M6.8999 21.7498C6.8999 23.3798 5.57995 24.6998 3.94995 24.6998C2.31995 24.6998 1 23.3798 1 21.7498C1 20.1198 2.31995 18.7998 3.94995 18.7998C5.57995 18.7998 6.8999 20.1198 6.8999 21.7498Z" stroke="#101011" stroke-width="1.1786" stroke-miterlimit="10" stroke-linecap="round" stroke-linejoin="round"/>
<path d="M22.8099 24.6998C24.4392 24.6998 25.76 23.379 25.76 21.7498C25.76 20.1206 24.4392 18.7998 22.8099 18.7998C21.1807 18.7998 19.86 20.1206 19.86 21.7498C19.86 23.379 21.1807 24.6998 22.8099 24.6998Z" stroke="#101011" stroke-width="1.1786" stroke-miterlimit="10" stroke-linecap="round" stroke-linejoin="round"/>
<path d="M41.6699 24.6998C43.2992 24.6998 44.62 23.379 44.62 21.7498C44.62 20.1206 43.2992 18.7998 41.6699 18.7998C40.0407 18.7998 38.72 20.1206 38.72 21.7498C38.72 23.379 40.0407 24.6998 41.6699 24.6998Z" stroke="#101011" stroke-width="1.1786" stroke-miterlimit="10" stroke-linecap="round" stroke-linejoin="round"/>
<path d="M60.52 24.6998C62.1493 24.6998 63.47 23.379 63.47 21.7498C63.47 20.1206 62.1493 18.7998 60.52 18.7998C58.8908 18.7998 57.5699 20.1206 57.5699 21.7498C57.5699 23.379 58.8908 24.6998 60.52 24.6998Z" stroke="#101011" stroke-width="1.1786" stroke-miterlimit="10" stroke-linecap="round" stroke-linejoin="round"/>
<path d="M79.38 24.6998C81.0092 24.6998 82.33 23.379 82.33 21.7498C82.33 20.1206 81.0092 18.7998 79.38 18.7998C77.7508 18.7998 76.4299 20.1206 76.4299 21.7498C76.4299 23.379 77.7508 24.6998 79.38 24.6998Z" stroke="#101011" stroke-width="1.1786" stroke-miterlimit="10" stroke-linecap="round" stroke-linejoin="round"/>
<path d="M98.24 24.6998C99.8692 24.6998 101.19 23.379 101.19 21.7498C101.19 20.1206 99.8692 18.7998 98.24 18.7998C96.6108 18.7998 95.2899 20.1206 95.2899 21.7498C95.2899 23.379 96.6108 24.6998 98.24 24.6998Z" stroke="#101011" stroke-width="1.1786" stroke-miterlimit="10" stroke-linecap="round" stroke-linejoin="round"/>
<path d="M117.09 24.6998C118.719 24.6998 120.04 23.379 120.04 21.7498C120.04 20.1206 118.719 18.7998 117.09 18.7998C115.461 18.7998 114.14 20.1206 114.14 21.7498C114.14 23.379 115.461 24.6998 117.09 24.6998Z" stroke="#101011" stroke-width="1.1786" stroke-miterlimit="10" stroke-linecap="round" stroke-linejoin="round"/>
<path d="M138.9 21.7498C138.9 23.3798 137.58 24.6998 135.95 24.6998C134.32 24.6998 133 23.3798 133 21.7498C133 20.1198 134.32 18.7998 135.95 18.7998C137.58 18.7998 138.9 20.1198 138.9 21.7498Z" stroke="#101011" stroke-width="1.1786" stroke-miterlimit="10" stroke-linecap="round" stroke-linejoin="round"/>
<path d="M6.8999 3.95C6.8999 5.58 5.57995 6.9 3.94995 6.9C2.31995 6.9 1 5.58 1 3.95C1 2.32 2.31995 1 3.94995 1C5.57995 1.01 6.8999 2.33 6.8999 3.95Z" stroke="#101011" stroke-width="1.1786" stroke-miterlimit="10" stroke-linecap="round" stroke-linejoin="round"/>
<path d="M22.8099 6.9C24.4392 6.9 25.76 5.57924 25.76 3.95C25.76 2.32076 24.4392 1 22.8099 1C21.1807 1 19.86 2.32076 19.86 3.95C19.86 5.57924 21.1807 6.9 22.8099 6.9Z" stroke="#101011" stroke-width="1.1786" stroke-miterlimit="10" stroke-linecap="round" stroke-linejoin="round"/>
<path d="M41.6699 6.9C43.2992 6.9 44.62 5.57924 44.62 3.95C44.62 2.32076 43.2992 1 41.6699 1C40.0407 1 38.72 2.32076 38.72 3.95C38.72 5.57924 40.0407 6.9 41.6699 6.9Z" stroke="#101011" stroke-width="1.1786" stroke-miterlimit="10" stroke-linecap="round" stroke-linejoin="round"/>
<path d="M60.52 6.9C62.1493 6.9 63.47 5.57924 63.47 3.95C63.47 2.32076 62.1493 1 60.52 1C58.8908 1 57.5699 2.32076 57.5699 3.95C57.5699 5.57924 58.8908 6.9 60.52 6.9Z" stroke="#101011" stroke-width="1.1786" stroke-miterlimit="10" stroke-linecap="round" stroke-linejoin="round"/>
<path d="M79.38 6.9C81.0092 6.9 82.33 5.57924 82.33 3.95C82.33 2.32076 81.0092 1 79.38 1C77.7508 1 76.4299 2.32076 76.4299 3.95C76.4299 5.57924 77.7508 6.9 79.38 6.9Z" stroke="#101011" stroke-width="1.1786" stroke-miterlimit="10" stroke-linecap="round" stroke-linejoin="round"/>
<path d="M98.24 6.9C99.8692 6.9 101.19 5.57924 101.19 3.95C101.19 2.32076 99.8692 1 98.24 1C96.6108 1 95.2899 2.32076 95.2899 3.95C95.2899 5.57924 96.6108 6.9 98.24 6.9Z" stroke="#101011" stroke-width="1.1786" stroke-miterlimit="10" stroke-linecap="round" stroke-linejoin="round"/>
<path d="M117.09 6.9C118.719 6.9 120.04 5.57924 120.04 3.95C120.04 2.32076 118.719 1 117.09 1C115.461 1 114.14 2.32076 114.14 3.95C114.14 5.57924 115.461 6.9 117.09 6.9Z" stroke="#101011" stroke-width="1.1786" stroke-miterlimit="10" stroke-linecap="round" stroke-linejoin="round"/>
<path d="M138.9 3.95C138.9 5.58 137.58 6.9 135.95 6.9C134.32 6.9 133 5.58 133 3.95C133 2.32 134.32 1 135.95 1C137.58 1 138.9 2.33 138.9 3.95Z" stroke="#101011" stroke-width="1.1786" stroke-miterlimit="10" stroke-linecap="round" stroke-linejoin="round"/>
</g>
</svg>
