<svg width="15" height="14" viewBox="0 0 15 14" fill="none" xmlns="http://www.w3.org/2000/svg">
<path d="M13.6497 10.2746L11.6918 8.32083C10.9926 7.62306 9.80389 7.9022 9.5242 8.80926C9.31443 9.43727 8.6152 9.78616 7.98589 9.64658C6.58743 9.29769 4.6995 7.48351 4.34989 6.01821C4.14012 5.39019 4.55966 4.69243 5.18896 4.48313C6.09796 4.20402 6.37766 3.01783 5.67843 2.32006L3.72058 0.366326C3.16119 -0.122109 2.32212 -0.122109 1.83265 0.366326L0.504114 1.69208C-0.824425 3.0876 0.643961 6.78575 3.93035 10.0652C7.21673 13.3447 10.9227 14.8798 12.3211 13.4843L13.6497 12.1585C14.1392 11.6003 14.1392 10.763 13.6497 10.2746Z" fill="#636E72"/>
</svg>
