<svg width="101" height="101" viewBox="0 0 101 101" fill="none" xmlns="http://www.w3.org/2000/svg">
<path d="M63.154 1.92706C52.387 -0.954626 40.9658 -0.156073 30.7045 4.19589C20.4433 8.54785 11.9303 16.2036 6.51789 25.9473C1.10544 35.6909 -0.89616 46.9637 0.831009 57.975C2.55819 68.9864 7.9151 79.105 16.0509 86.7235C24.1866 94.3421 34.6348 99.0237 45.7357 100.025C56.8366 101.026 67.9538 98.2895 77.3215 92.2496C86.6891 86.2097 93.7701 77.213 97.4396 66.6883C101.109 56.1637 101.157 44.7147 97.5752 34.1599L71.5789 42.9815C73.1941 47.7413 73.1726 52.9042 71.5178 57.6504C69.863 62.3965 66.6698 66.4536 62.4454 69.1773C58.221 71.901 53.2077 73.1351 48.2017 72.6836C43.1956 72.2321 38.484 70.1209 34.8152 66.6853C31.1463 63.2497 28.7306 58.6867 27.9517 53.7211C27.1728 48.7554 28.0755 43.6719 30.5162 39.278C32.957 34.8841 36.7959 31.4317 41.4233 29.4691C46.0507 27.5066 51.2011 27.1465 56.0565 28.446L63.154 1.92706Z" fill="#D4F1E5"/>
</svg>
